<svg viewBox="0 0 700 380" xmlns="http://www.w3.org/2000/svg" style="background:#000;">
  <!-- Legend - above chart -->
  <line x1="250" y1="20" x2="290" y2="20" stroke="#fff" stroke-width="2"/>
  <text x="298" y="24" font-family="SF Mono, monospace" font-size="11" fill="#fff">Society Autonomy</text>
  <line x1="450" y1="20" x2="490" y2="20" stroke="#666" stroke-width="2" stroke-dasharray="6,4"/>
  <text x="498" y="24" font-family="SF Mono, monospace" font-size="11" fill="#666">Jobs Automated</text>

  <!-- Y-axis -->
  <line x1="80" y1="60" x2="80" y2="300" stroke="#333" stroke-width="1"/>

  <!-- X-axis -->
  <line x1="80" y1="300" x2="650" y2="300" stroke="#333" stroke-width="1"/>

  <!-- Y-axis labels -->
  <text x="65" y="65" font-family="SF Mono, monospace" font-size="11" fill="#666" text-anchor="end">100%</text>
  <text x="65" y="125" font-family="SF Mono, monospace" font-size="11" fill="#666" text-anchor="end">75%</text>
  <text x="65" y="185" font-family="SF Mono, monospace" font-size="11" fill="#666" text-anchor="end">50%</text>
  <text x="65" y="245" font-family="SF Mono, monospace" font-size="11" fill="#666" text-anchor="end">25%</text>
  <text x="65" y="305" font-family="SF Mono, monospace" font-size="11" fill="#666" text-anchor="end">0%</text>

  <!-- Horizontal grid lines -->
  <line x1="80" y1="60" x2="650" y2="60" stroke="#222" stroke-width="1" stroke-dasharray="4,4"/>
  <line x1="80" y1="120" x2="650" y2="120" stroke="#222" stroke-width="1" stroke-dasharray="4,4"/>
  <line x1="80" y1="180" x2="650" y2="180" stroke="#222" stroke-width="1" stroke-dasharray="4,4"/>
  <line x1="80" y1="240" x2="650" y2="240" stroke="#222" stroke-width="1" stroke-dasharray="4,4"/>

  <!-- X-axis labels -->
  <text x="137" y="320" font-family="SF Mono, monospace" font-size="10" fill="#666" text-anchor="middle">Stage 1</text>
  <text x="251" y="320" font-family="SF Mono, monospace" font-size="10" fill="#666" text-anchor="middle">Stage 2</text>
  <text x="365" y="320" font-family="SF Mono, monospace" font-size="10" fill="#666" text-anchor="middle">Stage 3</text>
  <text x="479" y="320" font-family="SF Mono, monospace" font-size="10" fill="#666" text-anchor="middle">Stage 4</text>
  <text x="593" y="320" font-family="SF Mono, monospace" font-size="10" fill="#666" text-anchor="middle">Stage 5</text>

  <!-- Axis title -->
  <text x="365" y="350" font-family="SF Mono, monospace" font-size="12" fill="#fff" text-anchor="middle">AI Progression</text>

  <!-- Society Autonomy curve (solid white) - starts low, plateaus at ~90-95% -->
  <polyline points="137,295 180,290 220,282 251,270 290,255 320,235 365,195 410,145 440,110 479,90 520,78 560,74 593,72" fill="none" stroke="#fff" stroke-width="2"/>

  <!-- Jobs Automated curve (dashed gray) - similar but slightly behind, plateaus at ~90% -->
  <polyline points="137,297 180,293 220,287 251,278 290,265 320,248 365,210 410,162 440,125 479,100 520,86 560,80 593,78" fill="none" stroke="#666" stroke-width="2" stroke-dasharray="6,4"/>

  <!-- Current position marker - between Stage 2 and 3, below 25% (~18%) -->
  <line x1="308" y1="262" x2="308" y2="300" stroke="#444" stroke-width="1" stroke-dasharray="3,3"/>
  <text x="318" y="278" font-family="SF Mono, monospace" font-size="10" fill="#888">NOW</text>
</svg>
