<svg viewBox="0 0 700 420" xmlns="http://www.w3.org/2000/svg" style="background:#000;">
  <!-- Title -->
  <text x="350" y="25" font-family="SF Mono, monospace" font-size="14" fill="#fff" text-anchor="middle" font-weight="bold">LightRAG Dual-Level Retrieval</text>

  <!-- Low-Level Section -->
  <rect x="30" y="50" width="310" height="340" fill="#0a0a0a" stroke="#333" stroke-width="1"/>
  <text x="185" y="75" font-family="SF Mono, monospace" font-size="12" fill="#fff" text-anchor="middle">Low-Level Retrieval</text>
  <text x="185" y="92" font-family="SF Mono, monospace" font-size="10" fill="#666" text-anchor="middle">PRECISION</text>

  <!-- Low-Level Properties -->
  <rect x="50" y="110" width="270" height="100" fill="#111" stroke="#444" stroke-width="1"/>
  <text x="185" y="132" font-family="SF Mono, monospace" font-size="10" fill="#fff" text-anchor="middle">Characteristics</text>
  <line x1="70" y1="145" x2="300" y2="145" stroke="#333" stroke-width="1"/>

  <text x="70" y="165" font-family="SF Mono, monospace" font-size="9" fill="#888">Scope:</text>
  <text x="150" y="165" font-family="SF Mono, monospace" font-size="9" fill="#fff">1-hop direct connections</text>

  <text x="70" y="182" font-family="SF Mono, monospace" font-size="9" fill="#888">Matching:</text>
  <text x="150" y="182" font-family="SF Mono, monospace" font-size="9" fill="#fff">Exact keyword matching</text>

  <text x="70" y="199" font-family="SF Mono, monospace" font-size="9" fill="#888">Output:</text>
  <text x="150" y="199" font-family="SF Mono, monospace" font-size="9" fill="#fff">Factual, precise results</text>

  <!-- Low-Level Graph Visualization -->
  <text x="185" y="235" font-family="SF Mono, monospace" font-size="9" fill="#666" text-anchor="middle">1-Hop Direct Connections</text>

  <!-- Central node (Tesla) -->
  <circle cx="185" cy="285" r="20" fill="#222" stroke="#fff" stroke-width="2"/>
  <text x="185" y="289" font-family="SF Mono, monospace" font-size="8" fill="#fff" text-anchor="middle">Tesla</text>

  <!-- Direct neighbors only -->
  <circle cx="120" cy="260" r="12" fill="#222" stroke="#666" stroke-width="1"/>
  <text x="120" y="264" font-family="SF Mono, monospace" font-size="6" fill="#fff" text-anchor="middle">Musk</text>

  <circle cx="250" cy="260" r="12" fill="#222" stroke="#666" stroke-width="1"/>
  <text x="250" y="264" font-family="SF Mono, monospace" font-size="6" fill="#fff" text-anchor="middle">EV</text>

  <circle cx="130" cy="320" r="12" fill="#222" stroke="#666" stroke-width="1"/>
  <text x="130" y="324" font-family="SF Mono, monospace" font-size="6" fill="#fff" text-anchor="middle">CEO</text>

  <circle cx="240" cy="320" r="12" fill="#222" stroke="#666" stroke-width="1"/>
  <text x="240" y="324" font-family="SF Mono, monospace" font-size="6" fill="#fff" text-anchor="middle">2003</text>

  <!-- Direct edges -->
  <line x1="167" y1="272" x2="132" y2="267" stroke="#666" stroke-width="1"/>
  <line x1="203" y1="272" x2="238" y2="267" stroke="#666" stroke-width="1"/>
  <line x1="170" y1="298" x2="142" y2="313" stroke="#666" stroke-width="1"/>
  <line x1="200" y1="298" x2="228" y2="313" stroke="#666" stroke-width="1"/>

  <!-- Example query -->
  <rect x="50" y="350" width="270" height="30" fill="#111" stroke="#444" stroke-width="1"/>
  <text x="185" y="370" font-family="SF Mono, monospace" font-size="9" fill="#555" text-anchor="middle">"Who is the CEO of Tesla?"</text>

  <!-- High-Level Section -->
  <rect x="360" y="50" width="310" height="340" fill="#0a0a0a" stroke="#333" stroke-width="1"/>
  <text x="515" y="75" font-family="SF Mono, monospace" font-size="12" fill="#fff" text-anchor="middle">High-Level Retrieval</text>
  <text x="515" y="92" font-family="SF Mono, monospace" font-size="10" fill="#666" text-anchor="middle">CONTEXT</text>

  <!-- High-Level Properties -->
  <rect x="380" y="110" width="270" height="100" fill="#111" stroke="#444" stroke-width="1"/>
  <text x="515" y="132" font-family="SF Mono, monospace" font-size="10" fill="#fff" text-anchor="middle">Characteristics</text>
  <line x1="400" y1="145" x2="630" y2="145" stroke="#333" stroke-width="1"/>

  <text x="400" y="165" font-family="SF Mono, monospace" font-size="9" fill="#888">Scope:</text>
  <text x="480" y="165" font-family="SF Mono, monospace" font-size="9" fill="#fff">2-3 hop expansion</text>

  <text x="400" y="182" font-family="SF Mono, monospace" font-size="9" fill="#888">Matching:</text>
  <text x="480" y="182" font-family="SF Mono, monospace" font-size="9" fill="#fff">Conceptual/semantic</text>

  <text x="400" y="199" font-family="SF Mono, monospace" font-size="9" fill="#888">Output:</text>
  <text x="480" y="199" font-family="SF Mono, monospace" font-size="9" fill="#fff">Comprehensive context</text>

  <!-- High-Level Graph Visualization -->
  <text x="515" y="235" font-family="SF Mono, monospace" font-size="9" fill="#666" text-anchor="middle">2-3 Hop Neighbor Expansion</text>

  <!-- Central node (EV Industry) -->
  <circle cx="515" cy="285" r="20" fill="#222" stroke="#fff" stroke-width="2"/>
  <text x="515" y="282" font-family="SF Mono, monospace" font-size="7" fill="#fff" text-anchor="middle">EV</text>
  <text x="515" y="292" font-family="SF Mono, monospace" font-size="6" fill="#fff" text-anchor="middle">Industry</text>

  <!-- First hop -->
  <circle cx="450" cy="265" r="10" fill="#222" stroke="#666" stroke-width="1"/>
  <circle cx="580" cy="265" r="10" fill="#222" stroke="#666" stroke-width="1"/>
  <circle cx="470" cy="320" r="10" fill="#222" stroke="#666" stroke-width="1"/>
  <circle cx="560" cy="320" r="10" fill="#222" stroke="#666" stroke-width="1"/>

  <!-- Second hop (extended network) -->
  <circle cx="410" cy="250" r="8" fill="#333" stroke="#555" stroke-width="1"/>
  <circle cx="430" cy="300" r="8" fill="#333" stroke="#555" stroke-width="1"/>
  <circle cx="620" cy="250" r="8" fill="#333" stroke="#555" stroke-width="1"/>
  <circle cx="600" cy="300" r="8" fill="#333" stroke="#555" stroke-width="1"/>
  <circle cx="440" cy="345" r="8" fill="#333" stroke="#555" stroke-width="1"/>
  <circle cx="590" cy="345" r="8" fill="#333" stroke="#555" stroke-width="1"/>

  <!-- First hop edges -->
  <line x1="497" y1="275" x2="460" y2="272" stroke="#666" stroke-width="1"/>
  <line x1="533" y1="275" x2="570" y2="272" stroke="#666" stroke-width="1"/>
  <line x1="502" y1="302" x2="480" y2="313" stroke="#666" stroke-width="1"/>
  <line x1="528" y1="302" x2="550" y2="313" stroke="#666" stroke-width="1"/>

  <!-- Second hop edges (lighter) -->
  <line x1="442" y1="260" x2="418" y2="255" stroke="#444" stroke-width="1"/>
  <line x1="445" y1="275" x2="438" y2="293" stroke="#444" stroke-width="1"/>
  <line x1="588" y1="260" x2="612" y2="255" stroke="#444" stroke-width="1"/>
  <line x1="585" y1="275" x2="592" y2="293" stroke="#444" stroke-width="1"/>
  <line x1="465" y1="328" x2="448" y2="340" stroke="#444" stroke-width="1"/>
  <line x1="565" y1="328" x2="582" y2="340" stroke="#444" stroke-width="1"/>

  <!-- Dashed circle indicating expansion range -->
  <ellipse cx="515" cy="295" rx="130" ry="85" fill="none" stroke="#333" stroke-width="1" stroke-dasharray="5,3"/>

  <!-- Example query -->
  <rect x="380" y="350" width="270" height="30" fill="#111" stroke="#444" stroke-width="1"/>
  <text x="515" y="370" font-family="SF Mono, monospace" font-size="9" fill="#555" text-anchor="middle">"How does EV industry affect climate?"</text>

  <!-- Bottom comparison -->
  <text x="350" y="408" font-family="SF Mono, monospace" font-size="10" fill="#888" text-anchor="middle">Both modes: Vector search only (no LLM for retrieval) -> ~100 tokens per query</text>
</svg>